<svg width="492" height="297" viewBox="0 0 492 297" fill="none" xmlns="http://www.w3.org/2000/svg">
<path d="M398.043 114.012C388.23 114.012 378.402 115.709 368.835 119.056L366.839 119.754L334.692 61.348V35.983H373.209C380.611 35.983 386.633 29.961 386.633 22.558C386.633 15.155 380.612 9.133 373.209 9.133H322.17C314.769 9.133 308.746 15.155 308.746 22.558C308.746 23.642 308.894 24.769 309.186 25.907L309.264 26.213V51.903H192.152L182.508 30.427H210.405C217.414 30.427 223.115 24.724 223.115 17.713C223.115 10.703 217.414 5 210.405 5H115.322C108.311 5 102.608 10.703 102.608 17.713C102.608 24.724 108.311 30.427 115.322 30.427H154.644L163.134 49.675L124.985 119.771L122.978 119.068C113.421 115.717 103.598 114.019 93.78 114.019C44.827 114.019 5 153.848 5 202.803C5 251.756 44.827 291.582 93.78 291.582C137.216 291.582 173.986 260.469 181.214 217.602L181.565 215.516H219.352L220.076 216.204C225.852 221.684 233.411 224.704 241.36 224.704C258.416 224.704 272.292 210.828 272.292 193.772C272.292 190.826 271.87 187.891 271.037 185.053L270.744 184.055L321.977 90.976L344.573 132.03L342.921 133.342C321.531 150.341 309.264 175.658 309.264 202.804C309.264 251.756 349.09 291.582 398.043 291.582C446.996 291.582 486.823 251.756 486.823 202.804C486.823 153.844 446.996 114.012 398.043 114.012ZM134.84 154.553L137.189 156.772C145.891 164.985 152.07 175.419 155.056 186.949L155.867 190.076H115.289L134.84 154.553ZM155.056 218.645C147.802 246.61 122.605 266.141 93.782 266.141C58.848 266.141 30.428 237.721 30.428 202.787C30.428 167.853 58.849 139.434 93.782 139.434C98.883 139.434 104.155 140.12 109.454 141.473L112.582 142.273L82.652 196.676C82.576 196.875 82.494 197.072 82.393 197.266C82.185 197.696 82.03 198.069 81.905 198.43C81.73 198.893 81.611 199.268 81.523 199.627C81.424 200 81.354 200.357 81.284 200.82C81.199 201.324 81.158 201.744 81.153 202.113L81.148 202.245C81.136 202.414 81.114 202.584 81.088 202.755L81.081 202.811L81.086 202.852C81.106 202.996 81.122 203.137 81.131 203.278C81.159 203.782 81.212 204.259 81.276 204.731C81.33 205.075 81.392 205.46 81.49 205.845C81.584 206.223 81.698 206.596 81.844 206.998C81.993 207.448 82.137 207.809 82.308 208.172C82.464 208.52 82.646 208.832 82.857 209.195L82.908 209.284C83.123 209.661 83.315 209.958 83.519 210.228C83.748 210.541 83.998 210.847 84.333 211.222C84.596 211.507 84.867 211.808 85.167 212.082C85.477 212.362 85.805 212.623 86.137 212.885C86.456 213.124 86.812 213.388 87.166 213.591L87.313 213.683C87.414 213.75 87.514 213.826 87.615 213.902L87.707 213.969C87.909 214.033 88.107 214.117 88.305 214.224C88.646 214.39 89.046 214.558 89.41 214.683C89.871 214.853 90.262 214.976 90.668 215.081C90.985 215.165 91.315 215.231 91.787 215.308C92.286 215.392 92.749 215.439 93.214 215.456C93.35 215.448 93.56 215.477 93.779 215.506L155.866 215.515L155.056 218.645ZM217.542 174.037C214.204 178.06 211.931 182.902 210.968 188.035L210.585 190.074H181.565L181.214 187.989C177.577 166.421 166.103 147.008 148.902 133.328L147.251 132.015L176.434 78.992L218.536 172.84L217.542 174.037ZM252.331 164.774L250.391 164.182C248.145 163.496 245.797 163.072 243.412 162.914L241.91 162.816L203.568 77.319H300.476L252.331 164.774ZM398.043 266.141C363.11 266.141 334.69 237.721 334.69 202.787C334.69 185.243 341.772 168.9 354.631 156.769L356.981 154.552L386.908 208.919C389.135 212.98 393.407 215.499 398.058 215.499C400.228 215.499 402.287 214.97 404.18 213.924C407.157 212.289 409.313 209.593 410.256 206.331C411.2 203.067 410.819 199.626 409.179 196.643L379.254 142.271L382.38 141.471C387.671 140.117 392.944 139.431 398.058 139.431C432.992 139.431 461.412 167.851 461.412 202.784C461.396 237.721 432.97 266.141 398.043 266.141Z" fill="#8ECAE6" stroke="black" stroke-width="10"/>
</svg>
